<svg aria-hidden="true" style="position: absolute; width: 0; height: 0; overflow: hidden;" version="1.1" xmlns="http://www.w3.org/2000/svg" xmlns:xlink="http://www.w3.org/1999/xlink">
<defs>
<symbol id="icon-github" viewBox="0 0 32 32">
<path d="M14.875 0.037c-0.119 0.013-0.488 0.056-0.813 0.094-1.35 0.15-3.238 0.669-4.438 1.219-2.025 0.925-3.544 1.994-5.094 3.594-5.544 5.706-6.050 14.606-1.188 20.837 2.569 3.288 6.137 5.381 10.313 6.044 1.256 0.2 3.431 0.2 4.688 0 3.475-0.55 6.519-2.081 8.956-4.519 5.225-5.2 6.187-13.169 2.369-19.525-1.144-1.912-2.962-3.813-4.825-5.063-2.019-1.35-4.25-2.206-6.688-2.569-0.6-0.087-2.831-0.169-3.281-0.113zM18.063 2.031c2.288 0.35 4.488 1.288 6.431 2.737 0.725 0.537 2.087 1.888 2.613 2.575 1.256 1.669 2.125 3.438 2.581 5.275 1.319 5.281-0.475 10.719-4.694 14.231-1.025 0.863-2.462 1.712-3.756 2.231l-0.55 0.219v-2.131c0-2.337-0.056-2.913-0.337-3.613-0.087-0.212-0.15-0.4-0.144-0.406s0.275-0.1 0.6-0.206c3.012-1.006 4.938-3.125 5.512-6.069 0.125-0.613 0.106-2.35-0.031-3-0.219-1.081-0.575-1.994-1.1-2.806l-0.319-0.5 0.075-0.394c0.113-0.588 0.1-2.112-0.025-2.662-0.219-0.963-0.681-1.563-1.325-1.706-0.813-0.181-2.075 0.231-3.688 1.194l-0.5 0.3-0.719-0.15c-1.856-0.388-4.012-0.356-5.7 0.075l-0.35 0.088-0.481-0.281c-0.713-0.419-1.569-0.844-2.056-1.006-0.644-0.219-1.4-0.313-1.756-0.213-0.594 0.169-1.050 0.781-1.263 1.7-0.125 0.55-0.138 2.075-0.025 2.663l0.075 0.394-0.319 0.5c-0.525 0.813-0.881 1.725-1.1 2.806-0.138 0.65-0.156 2.388-0.031 3 0.575 2.944 2.5 5.063 5.512 6.069 0.325 0.106 0.594 0.2 0.6 0.206s-0.050 0.181-0.137 0.381c-0.081 0.206-0.188 0.569-0.238 0.813-0.081 0.425-0.094 0.438-0.331 0.525-0.394 0.144-1.194 0.119-1.5-0.038-0.387-0.206-0.631-0.431-0.912-0.856-0.669-0.988-1.188-1.5-1.894-1.869-0.388-0.206-0.969-0.356-1.344-0.356h-0.287l0.081 0.856c0.037 0.475 0.075 0.9 0.081 0.938 0 0.044 0.063 0.081 0.144 0.081 0.256 0 0.756 0.288 1.044 0.6 0.156 0.169 0.419 0.512 0.588 0.762 0.169 0.256 0.481 0.625 0.688 0.831 0.8 0.794 2.169 1.212 3.275 1l0.262-0.050v2.531l-0.544-0.219c-6.063-2.438-9.669-8.65-8.738-15.056 0.35-2.4 1.3-4.606 2.862-6.681 0.525-0.688 1.888-2.037 2.612-2.575 2.219-1.663 4.537-2.556 7.4-2.856 0.512-0.050 2.525 0.025 3.156 0.119zM9.438 7.775c0.438 0.138 0.975 0.4 1.719 0.844 0.381 0.225 0.769 0.45 0.869 0.488 0.262 0.119 0.694 0.1 1.45-0.069 1.094-0.244 1.806-0.306 2.956-0.269 0.788 0.031 1.219 0.075 1.788 0.2 0.944 0.213 1.5 0.256 1.75 0.144 0.106-0.044 0.506-0.275 0.9-0.512 0.819-0.488 1.556-0.825 1.925-0.888l0.256-0.037 0.056 0.3c0.081 0.494 0.044 1.762-0.069 2.188-0.188 0.719-0.137 0.944 0.337 1.588 0.406 0.55 0.775 1.331 0.981 2.094 0.144 0.55 0.169 0.744 0.169 1.594 0.006 1.025-0.106 1.656-0.413 2.362-0.675 1.544-2.063 2.762-3.825 3.35-0.663 0.219-1.131 0.325-2.288 0.512-0.531 0.087-0.969 0.163-0.981 0.169-0.019 0.025 0.444 0.725 0.981 1.481 0.525 0.738 0.656 1 0.744 1.469 0.044 0.225 0.069 1.288 0.069 2.719v2.35l-0.45 0.075c-0.712 0.119-1.644 0.194-2.363 0.194s-1.65-0.075-2.356-0.194l-0.456-0.075v-2.313c0-1.294 0.031-2.494 0.063-2.719 0.081-0.488 0.213-0.75 0.75-1.506s1-1.456 0.981-1.481c-0.012-0.006-0.45-0.081-0.981-0.169-1.156-0.188-1.625-0.294-2.287-0.512-1.762-0.587-3.15-1.806-3.825-3.35-0.306-0.706-0.419-1.337-0.412-2.363 0-0.85 0.025-1.044 0.169-1.594 0.206-0.762 0.575-1.544 0.981-2.094 0.475-0.644 0.525-0.869 0.338-1.588-0.113-0.425-0.15-1.694-0.069-2.181 0.056-0.331 0.094-0.344 0.544-0.206z"></path>
</symbol>
<symbol id="icon-mail" viewBox="0 0 32 32">
<path d="M1.206 5.4c-0.588 0.188-1.006 0.612-1.144 1.169-0.044 0.194-0.063 3.050-0.050 9.587l0.019 9.313 0.188 0.337c0.106 0.188 0.3 0.419 0.431 0.519 0.537 0.387-0.506 0.363 15.35 0.363s14.813 0.025 15.35-0.363c0.131-0.1 0.331-0.331 0.431-0.519l0.188-0.337v-18.938l-0.188-0.338c-0.1-0.188-0.3-0.419-0.431-0.519-0.538-0.388 0.512-0.362-15.375-0.356-11.75 0-14.556 0.019-14.769 0.081zM29.625 6.65c-0.050 0.044-2.969 2.237-6.481 4.869-4.281 3.213-6.463 4.806-6.625 4.85-0.306 0.087-0.731 0.087-1.037 0-0.162-0.044-2.344-1.637-6.625-4.85-3.513-2.631-6.431-4.825-6.481-4.869-0.075-0.075 1.962-0.088 13.625-0.088s13.7 0.013 13.625 0.088zM8 12.406c3.625 2.719 6.713 4.994 6.863 5.050 0.15 0.063 0.463 0.144 0.7 0.181 0.525 0.087 1.169 0 1.656-0.225 0.169-0.081 3.281-2.375 6.906-5.094l6.594-4.95 0.019 4.281c0.006 2.356 0.006 6.212 0 8.563l-0.019 4.281-3.469-4.281c-1.906-2.356-3.512-4.313-3.569-4.344-0.169-0.088-0.481-0.069-0.65 0.044-0.175 0.119-0.294 0.419-0.244 0.631 0.025 0.087 1.625 2.119 3.563 4.512l3.525 4.35-6.938 0.019c-3.819 0.006-10.056 0.006-13.875 0l-6.938-0.019 3.525-4.35c1.938-2.394 3.537-4.425 3.563-4.512 0.050-0.212-0.069-0.512-0.244-0.631-0.156-0.1-0.444-0.131-0.625-0.063-0.050 0.025-1.65 1.956-3.544 4.3-1.894 2.337-3.469 4.281-3.494 4.313-0.031 0.038-0.056-3.65-0.056-8.519 0-6.844 0.019-8.569 0.081-8.531 0.038 0.031 3.044 2.275 6.669 4.994z"></path>
</symbol>
<symbol id="icon-telegram" viewBox="0 0 32 32">
<path d="M28.594 2.494c-0.619 0.206-6.887 2.275-13.938 4.6-7.044 2.319-13.012 4.287-13.262 4.381-0.563 0.2-0.95 0.537-1.188 1.012-0.237 0.481-0.244 1.206-0.025 1.637 0.181 0.356 0.531 0.725 0.831 0.881 0.125 0.063 1.769 0.794 3.65 1.619s3.425 1.506 3.438 1.519c0.012 0.012 0.5 2.238 1.081 4.944 0.588 2.706 1.113 5.025 1.175 5.15 0.238 0.488 0.806 0.65 1.3 0.369 0.137-0.081 1.438-1.038 2.887-2.125l2.637-1.975 3.050 2.494c1.675 1.375 3.188 2.569 3.356 2.663 0.4 0.219 0.95 0.269 1.444 0.119 0.506-0.144 1.081-0.712 1.238-1.219 0.056-0.188 1.375-5.744 2.925-12.344 3.094-13.169 2.931-12.356 2.6-13.006-0.337-0.656-0.9-1.025-1.637-1.069-0.4-0.019-0.531 0.006-1.563 0.35zM30.094 4.169c-0.025 0.1-1.294 5.487-2.819 11.981s-2.788 11.825-2.806 11.837c-0.019 0.019-0.081-0.012-0.137-0.063-0.063-0.050-2.219-1.819-4.8-3.925-2.575-2.106-4.713-3.85-4.738-3.875s2.15-2.344 4.844-5.156c2.694-2.813 4.956-5.213 5.031-5.338 0.094-0.15 0.144-0.325 0.144-0.512 0-0.25-0.038-0.331-0.238-0.556-0.225-0.256-0.262-0.275-0.613-0.294l-0.369-0.025-14.706 8.175-3.513-1.531c-1.925-0.844-3.481-1.556-3.45-1.588 0.050-0.050 27.988-9.287 28.131-9.294 0.063-0.006 0.069 0.037 0.038 0.162zM18.813 13.088c0 0.012-1.394 1.488-3.1 3.269s-3.144 3.319-3.188 3.425c-0.044 0.1-0.331 1.044-0.625 2.094-0.3 1.050-0.563 1.925-0.588 1.956-0.037 0.044-1.262-5.519-1.275-5.787-0.006-0.081 1.056-0.7 4.369-2.544 2.406-1.338 4.381-2.438 4.394-2.438 0.006 0 0.012 0.012 0.012 0.025zM14.863 22.613c0.425 0.344 0.769 0.644 0.769 0.669 0 0.063-2.725 2.094-2.744 2.044-0.006-0.025 0.156-0.637 0.363-1.356 0.675-2.337 0.619-2.181 0.738-2.075 0.056 0.050 0.45 0.369 0.875 0.719z"></path>
</symbol>
<symbol id="icon-telephone" viewBox="0 0 32 32">
<path d="M5.725 0.094c-0.506 0.131-1.025 0.419-1.556 0.875-0.587 0.506-2.694 2.65-3.038 3.094-1.394 1.781-1.419 4.55-0.069 8.125 1.644 4.369 4.725 8.794 8.625 12.387 5.375 4.956 12.575 8.162 16.281 7.262 0.55-0.131 1.462-0.556 1.881-0.875 0.425-0.319 3.25-3.219 3.512-3.6 0.488-0.706 0.675-1.65 0.488-2.45-0.212-0.894-0.281-0.975-3-3.7-2.744-2.744-2.831-2.813-3.738-3-0.719-0.15-1.45-0.019-2.156 0.387-0.163 0.1-0.938 0.806-1.719 1.581l-1.419 1.4-0.456-0.238c-1.119-0.581-1.944-1.137-3.175-2.15-1.262-1.038-3.025-2.856-4-4.131-0.706-0.925-1.744-2.631-1.75-2.862 0-0.044 0.488-0.556 1.081-1.137 1.25-1.219 1.744-1.787 2.025-2.325 0.35-0.681 0.419-1.544 0.175-2.256-0.244-0.725-0.481-1-2.869-3.394-2.363-2.362-2.725-2.675-3.4-2.906-0.469-0.169-1.244-0.206-1.725-0.087zM7.175 1.85c0.175 0.1 1.175 1.044 2.519 2.394 2.431 2.438 2.525 2.55 2.519 3.194 0 0.569-0.15 0.769-1.781 2.4-0.825 0.819-1.544 1.575-1.594 1.681-0.075 0.131-0.094 0.313-0.075 0.619 0.019 0.375 0.069 0.519 0.45 1.275 0.863 1.713 2 3.219 3.881 5.144 1.869 1.913 3.731 3.337 5.65 4.325 0.681 0.35 0.813 0.4 1.125 0.394 0.212 0 0.438-0.044 0.569-0.113 0.119-0.063 0.894-0.788 1.719-1.606 1.063-1.056 1.581-1.525 1.781-1.613 0.375-0.169 0.863-0.169 1.206 0 0.375 0.188 4.794 4.6 4.988 4.988 0.106 0.206 0.15 0.394 0.15 0.663 0 0.644-0.131 0.819-1.906 2.6-1.756 1.762-1.919 1.881-2.856 2.094-0.906 0.2-2.425 0.038-3.962-0.419-2.344-0.694-5.494-2.356-8.088-4.269-4.994-3.675-9.281-9.294-11.063-14.488-0.85-2.469-0.944-4.237-0.294-5.55 0.2-0.419 0.388-0.631 1.688-1.95 0.8-0.813 1.569-1.55 1.7-1.644 0.563-0.387 1.138-0.431 1.675-0.119z"></path>
</symbol>
</defs>
</svg>
